<?xml version="1.0" standalone="no"?>
<!DOCTYPE svg PUBLIC "-//W3C//DTD SVG 20010904//EN"
 "http://www.w3.org/TR/2001/REC-SVG-20010904/DTD/svg10.dtd">
<svg version="1.0" xmlns="http://www.w3.org/2000/svg"
 width="556.000000pt" height="379.000000pt" viewBox="0 0 556.000000 379.000000"
 preserveAspectRatio="xMidYMid meet">
<metadata>
Created by potrace 1.16, written by Peter Selinger 2001-2019
</metadata>
<g transform="translate(0.000000,379.000000) scale(0.100000,-0.100000)"
fill="#000000" stroke="none">
<path d="M1525 3589 c-435 -53 -813 -305 -1030 -685 -85 -149 -153 -363 -161
-504 -2 -41 -7 -98 -10 -125 -3 -28 -1 -100 5 -160 35 -328 168 -604 401 -834
289 -286 709 -430 1110 -381 132 16 125 -1 70 168 -27 81 -53 165 -59 188
l-11 41 -77 17 c-92 20 -221 79 -307 140 -66 47 -263 249 -248 254 5 1 -5 33
-23 70 -44 89 -72 185 -90 302 -13 85 -13 108 0 191 28 174 67 279 151 405 88
133 207 234 357 304 124 57 210 75 357 74 145 0 223 -17 347 -74 251 -117 414
-317 489 -600 25 -93 25 -298 0 -410 -52 -239 -224 -463 -443 -578 -56 -29
-136 -61 -179 -72 -42 -11 -79 -22 -81 -24 -3 -2 2 -17 11 -34 8 -16 31 -83
51 -148 20 -65 38 -120 41 -123 2 -2 46 16 97 42 365 181 641 531 722 917 146
692 -232 1355 -902 1579 -168 57 -412 81 -588 60z"/>
</g>
</svg>
